<svg xmlns="http://www.w3.org/2000/svg" width="360" height="360" viewBox="0 0 360 360" role="img" aria-label="订阅咨询二维码（演示）">
<rect width="360" height="360" fill="#fff"/>
<path fill="#000" d="M32 32h8v8h-8zM40 32h8v8h-8zM48 32h8v8h-8zM56 32h8v8h-8zM64 32h8v8h-8zM72 32h8v8h-8zM80 32h8v8h-8zM104 32h8v8h-8zM136 32h8v8h-8zM144 32h8v8h-8zM152 32h8v8h-8zM168 32h8v8h-8zM184 32h8v8h-8zM200 32h8v8h-8zM216 32h8v8h-8zM224 32h8v8h-8zM232 32h8v8h-8zM240 32h8v8h-8zM248 32h8v8h-8zM272 32h8v8h-8zM280 32h8v8h-8zM288 32h8v8h-8zM296 32h8v8h-8zM304 32h8v8h-8zM312 32h8v8h-8zM320 32h8v8h-8zM32 40h8v8h-8zM80 40h8v8h-8zM96 40h8v8h-8zM104 40h8v8h-8zM120 40h8v8h-8zM128 40h8v8h-8zM136 40h8v8h-8zM160 40h8v8h-8zM200 40h8v8h-8zM216 40h8v8h-8zM224 40h8v8h-8zM240 40h8v8h-8zM256 40h8v8h-8zM272 40h8v8h-8zM320 40h8v8h-8zM32 48h8v8h-8zM48 48h8v8h-8zM56 48h8v8h-8zM64 48h8v8h-8zM80 48h8v8h-8zM104 48h8v8h-8zM112 48h8v8h-8zM120 48h8v8h-8zM168 48h8v8h-8zM176 48h8v8h-8zM192 48h8v8h-8zM200 48h8v8h-8zM208 48h8v8h-8zM216 48h8v8h-8zM224 48h8v8h-8zM232 48h8v8h-8zM248 48h8v8h-8zM256 48h8v8h-8zM272 48h8v8h-8zM288 48h8v8h-8zM296 48h8v8h-8zM304 48h8v8h-8zM320 48h8v8h-8zM32 56h8v8h-8zM48 56h8v8h-8zM56 56h8v8h-8zM64 56h8v8h-8zM80 56h8v8h-8zM96 56h8v8h-8zM104 56h8v8h-8zM120 56h8v8h-8zM128 56h8v8h-8zM144 56h8v8h-8zM152 56h8v8h-8zM160 56h8v8h-8zM168 56h8v8h-8zM184 56h8v8h-8zM200 56h8v8h-8zM216 56h8v8h-8zM224 56h8v8h-8zM232 56h8v8h-8zM240 56h8v8h-8zM256 56h8v8h-8zM272 56h8v8h-8zM288 56h8v8h-8zM296 56h8v8h-8zM304 56h8v8h-8zM320 56h8v8h-8zM32 64h8v8h-8zM48 64h8v8h-8zM56 64h8v8h-8zM64 64h8v8h-8zM80 64h8v8h-8zM112 64h8v8h-8zM128 64h8v8h-8zM136 64h8v8h-8zM144 64h8v8h-8zM160 64h8v8h-8zM224 64h8v8h-8zM232 64h8v8h-8zM272 64h8v8h-8zM288 64h8v8h-8zM296 64h8v8h-8zM304 64h8v8h-8zM320 64h8v8h-8zM32 72h8v8h-8zM80 72h8v8h-8zM96 72h8v8h-8zM112 72h8v8h-8zM128 72h8v8h-8zM136 72h8v8h-8zM144 72h8v8h-8zM152 72h8v8h-8zM216 72h8v8h-8zM256 72h8v8h-8zM272 72h8v8h-8zM320 72h8v8h-8zM32 80h8v8h-8zM40 80h8v8h-8zM48 80h8v8h-8zM56 80h8v8h-8zM64 80h8v8h-8zM72 80h8v8h-8zM80 80h8v8h-8zM96 80h8v8h-8zM112 80h8v8h-8zM128 80h8v8h-8zM144 80h8v8h-8zM160 80h8v8h-8zM176 80h8v8h-8zM192 80h8v8h-8zM208 80h8v8h-8zM224 80h8v8h-8zM240 80h8v8h-8zM256 80h8v8h-8zM272 80h8v8h-8zM280 80h8v8h-8zM288 80h8v8h-8zM296 80h8v8h-8zM304 80h8v8h-8zM312 80h8v8h-8zM320 80h8v8h-8zM128 88h8v8h-8zM136 88h8v8h-8zM160 88h8v8h-8zM168 88h8v8h-8zM176 88h8v8h-8zM192 88h8v8h-8zM232 88h8v8h-8zM256 88h8v8h-8zM32 96h8v8h-8zM40 96h8v8h-8zM48 96h8v8h-8zM56 96h8v8h-8zM64 96h8v8h-8zM80 96h8v8h-8zM88 96h8v8h-8zM96 96h8v8h-8zM104 96h8v8h-8zM112 96h8v8h-8zM152 96h8v8h-8zM160 96h8v8h-8zM168 96h8v8h-8zM176 96h8v8h-8zM192 96h8v8h-8zM208 96h8v8h-8zM224 96h8v8h-8zM232 96h8v8h-8zM264 96h8v8h-8zM280 96h8v8h-8zM296 96h8v8h-8zM312 96h8v8h-8zM32 104h8v8h-8zM56 104h8v8h-8zM88 104h8v8h-8zM96 104h8v8h-8zM104 104h8v8h-8zM128 104h8v8h-8zM144 104h8v8h-8zM160 104h8v8h-8zM168 104h8v8h-8zM192 104h8v8h-8zM200 104h8v8h-8zM216 104h8v8h-8zM232 104h8v8h-8zM256 104h8v8h-8zM280 104h8v8h-8zM288 104h8v8h-8zM312 104h8v8h-8zM320 104h8v8h-8zM32 112h8v8h-8zM40 112h8v8h-8zM48 112h8v8h-8zM56 112h8v8h-8zM64 112h8v8h-8zM80 112h8v8h-8zM88 112h8v8h-8zM112 112h8v8h-8zM120 112h8v8h-8zM128 112h8v8h-8zM144 112h8v8h-8zM176 112h8v8h-8zM200 112h8v8h-8zM208 112h8v8h-8zM216 112h8v8h-8zM232 112h8v8h-8zM240 112h8v8h-8zM256 112h8v8h-8zM264 112h8v8h-8zM272 112h8v8h-8zM288 112h8v8h-8zM304 112h8v8h-8zM48 120h8v8h-8zM64 120h8v8h-8zM72 120h8v8h-8zM128 120h8v8h-8zM136 120h8v8h-8zM176 120h8v8h-8zM184 120h8v8h-8zM192 120h8v8h-8zM208 120h8v8h-8zM232 120h8v8h-8zM256 120h8v8h-8zM272 120h8v8h-8zM280 120h8v8h-8zM288 120h8v8h-8zM304 120h8v8h-8zM320 120h8v8h-8zM32 128h8v8h-8zM56 128h8v8h-8zM64 128h8v8h-8zM80 128h8v8h-8zM88 128h8v8h-8zM96 128h8v8h-8zM120 128h8v8h-8zM128 128h8v8h-8zM152 128h8v8h-8zM160 128h8v8h-8zM176 128h8v8h-8zM192 128h8v8h-8zM200 128h8v8h-8zM216 128h8v8h-8zM224 128h8v8h-8zM232 128h8v8h-8zM256 128h8v8h-8zM288 128h8v8h-8zM296 128h8v8h-8zM304 128h8v8h-8zM312 128h8v8h-8zM32 136h8v8h-8zM64 136h8v8h-8zM152 136h8v8h-8zM168 136h8v8h-8zM184 136h8v8h-8zM192 136h8v8h-8zM200 136h8v8h-8zM208 136h8v8h-8zM224 136h8v8h-8zM248 136h8v8h-8zM264 136h8v8h-8zM288 136h8v8h-8zM320 136h8v8h-8zM32 144h8v8h-8zM40 144h8v8h-8zM56 144h8v8h-8zM72 144h8v8h-8zM80 144h8v8h-8zM104 144h8v8h-8zM112 144h8v8h-8zM120 144h8v8h-8zM160 144h8v8h-8zM176 144h8v8h-8zM216 144h8v8h-8zM224 144h8v8h-8zM232 144h8v8h-8zM256 144h8v8h-8zM264 144h8v8h-8zM280 144h8v8h-8zM304 144h8v8h-8zM56 152h8v8h-8zM72 152h8v8h-8zM88 152h8v8h-8zM112 152h8v8h-8zM120 152h8v8h-8zM128 152h8v8h-8zM144 152h8v8h-8zM160 152h8v8h-8zM168 152h8v8h-8zM176 152h8v8h-8zM232 152h8v8h-8zM264 152h8v8h-8zM280 152h8v8h-8zM288 152h8v8h-8zM296 152h8v8h-8zM304 152h8v8h-8zM312 152h8v8h-8zM320 152h8v8h-8zM32 160h8v8h-8zM48 160h8v8h-8zM56 160h8v8h-8zM72 160h8v8h-8zM80 160h8v8h-8zM104 160h8v8h-8zM112 160h8v8h-8zM120 160h8v8h-8zM136 160h8v8h-8zM144 160h8v8h-8zM152 160h8v8h-8zM160 160h8v8h-8zM216 160h8v8h-8zM232 160h8v8h-8zM240 160h8v8h-8zM256 160h8v8h-8zM296 160h8v8h-8zM304 160h8v8h-8zM312 160h8v8h-8zM320 160h8v8h-8zM32 168h8v8h-8zM48 168h8v8h-8zM72 168h8v8h-8zM96 168h8v8h-8zM112 168h8v8h-8zM120 168h8v8h-8zM136 168h8v8h-8zM144 168h8v8h-8zM152 168h8v8h-8zM176 168h8v8h-8zM184 168h8v8h-8zM224 168h8v8h-8zM232 168h8v8h-8zM248 168h8v8h-8zM288 168h8v8h-8zM32 176h8v8h-8zM40 176h8v8h-8zM48 176h8v8h-8zM80 176h8v8h-8zM96 176h8v8h-8zM112 176h8v8h-8zM120 176h8v8h-8zM128 176h8v8h-8zM168 176h8v8h-8zM176 176h8v8h-8zM192 176h8v8h-8zM200 176h8v8h-8zM216 176h8v8h-8zM224 176h8v8h-8zM256 176h8v8h-8zM272 176h8v8h-8zM288 176h8v8h-8zM296 176h8v8h-8zM312 176h8v8h-8zM32 184h8v8h-8zM40 184h8v8h-8zM48 184h8v8h-8zM64 184h8v8h-8zM72 184h8v8h-8zM112 184h8v8h-8zM120 184h8v8h-8zM144 184h8v8h-8zM160 184h8v8h-8zM176 184h8v8h-8zM192 184h8v8h-8zM216 184h8v8h-8zM232 184h8v8h-8zM240 184h8v8h-8zM256 184h8v8h-8zM264 184h8v8h-8zM272 184h8v8h-8zM280 184h8v8h-8zM296 184h8v8h-8zM304 184h8v8h-8zM32 192h8v8h-8zM40 192h8v8h-8zM48 192h8v8h-8zM56 192h8v8h-8zM64 192h8v8h-8zM72 192h8v8h-8zM80 192h8v8h-8zM96 192h8v8h-8zM112 192h8v8h-8zM120 192h8v8h-8zM136 192h8v8h-8zM144 192h8v8h-8zM160 192h8v8h-8zM168 192h8v8h-8zM176 192h8v8h-8zM184 192h8v8h-8zM192 192h8v8h-8zM208 192h8v8h-8zM224 192h8v8h-8zM248 192h8v8h-8zM264 192h8v8h-8zM288 192h8v8h-8zM304 192h8v8h-8zM312 192h8v8h-8zM320 192h8v8h-8zM40 200h8v8h-8zM48 200h8v8h-8zM56 200h8v8h-8zM72 200h8v8h-8zM88 200h8v8h-8zM120 200h8v8h-8zM128 200h8v8h-8zM144 200h8v8h-8zM152 200h8v8h-8zM160 200h8v8h-8zM168 200h8v8h-8zM176 200h8v8h-8zM216 200h8v8h-8zM232 200h8v8h-8zM240 200h8v8h-8zM256 200h8v8h-8zM280 200h8v8h-8zM288 200h8v8h-8zM304 200h8v8h-8zM312 200h8v8h-8zM320 200h8v8h-8zM56 208h8v8h-8zM80 208h8v8h-8zM88 208h8v8h-8zM128 208h8v8h-8zM136 208h8v8h-8zM144 208h8v8h-8zM176 208h8v8h-8zM184 208h8v8h-8zM192 208h8v8h-8zM200 208h8v8h-8zM216 208h8v8h-8zM224 208h8v8h-8zM264 208h8v8h-8zM272 208h8v8h-8zM296 208h8v8h-8zM304 208h8v8h-8zM32 216h8v8h-8zM40 216h8v8h-8zM48 216h8v8h-8zM112 216h8v8h-8zM128 216h8v8h-8zM136 216h8v8h-8zM144 216h8v8h-8zM160 216h8v8h-8zM176 216h8v8h-8zM184 216h8v8h-8zM192 216h8v8h-8zM216 216h8v8h-8zM232 216h8v8h-8zM248 216h8v8h-8zM256 216h8v8h-8zM304 216h8v8h-8zM312 216h8v8h-8zM320 216h8v8h-8zM56 224h8v8h-8zM80 224h8v8h-8zM96 224h8v8h-8zM112 224h8v8h-8zM128 224h8v8h-8zM144 224h8v8h-8zM152 224h8v8h-8zM160 224h8v8h-8zM184 224h8v8h-8zM224 224h8v8h-8zM248 224h8v8h-8zM256 224h8v8h-8zM280 224h8v8h-8zM288 224h8v8h-8zM296 224h8v8h-8zM304 224h8v8h-8zM32 232h8v8h-8zM40 232h8v8h-8zM72 232h8v8h-8zM96 232h8v8h-8zM136 232h8v8h-8zM144 232h8v8h-8zM152 232h8v8h-8zM176 232h8v8h-8zM184 232h8v8h-8zM224 232h8v8h-8zM248 232h8v8h-8zM272 232h8v8h-8zM288 232h8v8h-8zM312 232h8v8h-8zM32 240h8v8h-8zM56 240h8v8h-8zM80 240h8v8h-8zM88 240h8v8h-8zM96 240h8v8h-8zM112 240h8v8h-8zM128 240h8v8h-8zM136 240h8v8h-8zM144 240h8v8h-8zM160 240h8v8h-8zM184 240h8v8h-8zM208 240h8v8h-8zM216 240h8v8h-8zM224 240h8v8h-8zM240 240h8v8h-8zM256 240h8v8h-8zM272 240h8v8h-8zM280 240h8v8h-8zM304 240h8v8h-8zM32 248h8v8h-8zM48 248h8v8h-8zM56 248h8v8h-8zM72 248h8v8h-8zM88 248h8v8h-8zM128 248h8v8h-8zM208 248h8v8h-8zM224 248h8v8h-8zM232 248h8v8h-8zM240 248h8v8h-8zM248 248h8v8h-8zM264 248h8v8h-8zM272 248h8v8h-8zM280 248h8v8h-8zM296 248h8v8h-8zM304 248h8v8h-8zM32 256h8v8h-8zM56 256h8v8h-8zM64 256h8v8h-8zM72 256h8v8h-8zM80 256h8v8h-8zM112 256h8v8h-8zM128 256h8v8h-8zM152 256h8v8h-8zM176 256h8v8h-8zM184 256h8v8h-8zM216 256h8v8h-8zM224 256h8v8h-8zM232 256h8v8h-8zM240 256h8v8h-8zM248 256h8v8h-8zM256 256h8v8h-8zM264 256h8v8h-8zM272 256h8v8h-8zM280 256h8v8h-8zM288 256h8v8h-8zM296 256h8v8h-8zM304 256h8v8h-8zM312 256h8v8h-8zM320 256h8v8h-8zM96 264h8v8h-8zM104 264h8v8h-8zM112 264h8v8h-8zM128 264h8v8h-8zM184 264h8v8h-8zM192 264h8v8h-8zM200 264h8v8h-8zM224 264h8v8h-8zM248 264h8v8h-8zM256 264h8v8h-8zM288 264h8v8h-8zM32 272h8v8h-8zM40 272h8v8h-8zM48 272h8v8h-8zM56 272h8v8h-8zM64 272h8v8h-8zM72 272h8v8h-8zM80 272h8v8h-8zM96 272h8v8h-8zM104 272h8v8h-8zM112 272h8v8h-8zM136 272h8v8h-8zM152 272h8v8h-8zM176 272h8v8h-8zM184 272h8v8h-8zM192 272h8v8h-8zM216 272h8v8h-8zM232 272h8v8h-8zM240 272h8v8h-8zM248 272h8v8h-8zM256 272h8v8h-8zM272 272h8v8h-8zM288 272h8v8h-8zM304 272h8v8h-8zM312 272h8v8h-8zM32 280h8v8h-8zM80 280h8v8h-8zM104 280h8v8h-8zM120 280h8v8h-8zM136 280h8v8h-8zM176 280h8v8h-8zM192 280h8v8h-8zM232 280h8v8h-8zM240 280h8v8h-8zM248 280h8v8h-8zM256 280h8v8h-8zM288 280h8v8h-8zM296 280h8v8h-8zM304 280h8v8h-8zM320 280h8v8h-8zM32 288h8v8h-8zM48 288h8v8h-8zM56 288h8v8h-8zM64 288h8v8h-8zM80 288h8v8h-8zM96 288h8v8h-8zM120 288h8v8h-8zM128 288h8v8h-8zM152 288h8v8h-8zM160 288h8v8h-8zM168 288h8v8h-8zM176 288h8v8h-8zM192 288h8v8h-8zM208 288h8v8h-8zM224 288h8v8h-8zM232 288h8v8h-8zM256 288h8v8h-8zM264 288h8v8h-8zM272 288h8v8h-8zM280 288h8v8h-8zM288 288h8v8h-8zM320 288h8v8h-8zM32 296h8v8h-8zM48 296h8v8h-8zM56 296h8v8h-8zM64 296h8v8h-8zM80 296h8v8h-8zM96 296h8v8h-8zM104 296h8v8h-8zM120 296h8v8h-8zM144 296h8v8h-8zM160 296h8v8h-8zM184 296h8v8h-8zM200 296h8v8h-8zM216 296h8v8h-8zM248 296h8v8h-8zM280 296h8v8h-8zM296 296h8v8h-8zM320 296h8v8h-8zM32 304h8v8h-8zM48 304h8v8h-8zM56 304h8v8h-8zM64 304h8v8h-8zM80 304h8v8h-8zM96 304h8v8h-8zM104 304h8v8h-8zM112 304h8v8h-8zM120 304h8v8h-8zM168 304h8v8h-8zM176 304h8v8h-8zM184 304h8v8h-8zM208 304h8v8h-8zM216 304h8v8h-8zM232 304h8v8h-8zM240 304h8v8h-8zM248 304h8v8h-8zM256 304h8v8h-8zM288 304h8v8h-8zM312 304h8v8h-8zM320 304h8v8h-8zM32 312h8v8h-8zM80 312h8v8h-8zM96 312h8v8h-8zM104 312h8v8h-8zM120 312h8v8h-8zM128 312h8v8h-8zM160 312h8v8h-8zM168 312h8v8h-8zM192 312h8v8h-8zM208 312h8v8h-8zM216 312h8v8h-8zM232 312h8v8h-8zM240 312h8v8h-8zM248 312h8v8h-8zM256 312h8v8h-8zM264 312h8v8h-8zM288 312h8v8h-8zM304 312h8v8h-8zM320 312h8v8h-8zM32 320h8v8h-8zM40 320h8v8h-8zM48 320h8v8h-8zM56 320h8v8h-8zM64 320h8v8h-8zM72 320h8v8h-8zM80 320h8v8h-8zM96 320h8v8h-8zM104 320h8v8h-8zM120 320h8v8h-8zM128 320h8v8h-8zM136 320h8v8h-8zM144 320h8v8h-8zM160 320h8v8h-8zM168 320h8v8h-8zM176 320h8v8h-8zM192 320h8v8h-8zM200 320h8v8h-8zM216 320h8v8h-8zM224 320h8v8h-8zM232 320h8v8h-8zM256 320h8v8h-8zM264 320h8v8h-8zM280 320h8v8h-8zM296 320h8v8h-8zM304 320h8v8h-8zM312 320h8v8h-8zM320 320h8v8h-8z"/>
</svg>
